<?xml version="1.0" standalone="no"?><!DOCTYPE svg PUBLIC "-//W3C//DTD SVG 1.1//EN" "http://www.w3.org/Graphics/SVG/1.1/DTD/svg11.dtd"><svg width="100%" height="100%" viewBox="0 0 101 100" version="1.1" xmlns="http://www.w3.org/2000/svg" xmlns:xlink="http://www.w3.org/1999/xlink" xml:space="preserve" style="fill-rule:evenodd;clip-rule:evenodd;stroke-linejoin:round;stroke-miterlimit:1.41421;"><path d="M49.604,58.95l-9.059,-9.059l-40.545,40.546l9.059,9.058l40.545,-40.545Z" style="fill:#fff;"/><path d="M61.935,46.622l-9.057,-9.059l-9.962,9.959l9.057,9.059l9.962,-9.959Z" style="fill:#fff;"/><path d="M51.258,13.594l4.242,3.667l5.428,-1.417l-2.175,5.17l3.02,4.723l-5.586,-0.473l-3.557,4.335l-1.28,-5.46l-5.222,-2.045l4.8,-2.902l0.33,-5.598Z" style="fill:#fff;fill-rule:nonzero;"/><path d="M98.137,3.072l-3.188,8.326l5.052,7.348l-8.903,-0.459l-5.43,7.073l-2.312,-8.61l-8.406,-2.973l7.472,-4.862l0.232,-8.915l6.936,5.607l8.547,-2.535Z" style="fill:#fff;fill-rule:nonzero;"/><path d="M84.522,35.042l-0.069,3.467l2.819,2.023l-3.32,1.006l-1.054,3.304l-1.981,-2.847l-3.469,0.02l2.094,-2.765l-1.091,-3.293l3.279,1.139l2.792,-2.054Z" style="fill:#fff;fill-rule:nonzero;"/></svg>