<svg class="territories"  fill="#000000" xmlns="http://www.w3.org/2000/svg" xmlns:xlink="http://www.w3.org/1999/xlink" version="1.1" x="0px" y="0px" viewBox="0 0 100 100" enable-background="new 0 0 100 100" xml:space="preserve"><g><path fill="none" d="M23.795,20.184c0.449,0.368,0.729,0.888,0.787,1.451c0.344,0.93,2.68,4.166,3.633,5.12   c0.515,0.515,0.85,1.203,1.275,2.076c1.006,2.067,1.912,3.649,3.623,3.649c1.451,0,3.861-2.269,5.62-3.925   c2.477-2.331,4.616-4.341,6.846-3.228c1.486,0.743,2.412,2.203,3.393,3.749c0.892,1.406,1.814,2.86,3.133,3.739   c0.469,0.313,0.938,0.646,1.407,0.981c2.889,2.063,3.98,2.52,5.027,1.807c-0.306-1.805-2.017-6.278-2.69-7.122   c-2.059-2.057-0.566-6.376,2.149-9.091c2.487-2.488,1.937-3.59,1.729-4.004c-0.23-0.462-0.576-0.771-0.976-1.128   c-0.799-0.715-2.461-2.201-1.128-4.868c0.17-0.339,0.232-0.686,0.245-1.011C54.128,7.165,50.141,6.5,46,6.5   c-11.71,0-22.208,5.262-29.275,13.538C22.516,19.141,23.241,19.73,23.795,20.184z"></path></g><g><path fill="none" d="M61.686,9.854c-0.102,0.412-0.245,0.833-0.452,1.258c0.062,0.057,0.126,0.115,0.184,0.166   c0.523,0.468,1.314,1.175,1.887,2.32c1.358,2.717,0.524,5.617-2.479,8.621c-1.396,1.396-1.954,3.094-1.935,3.669   c1.014,1.208,2.113,4.155,2.555,5.416c1.554,4.437,1.35,5.775,0.431,6.694c-1.406,1.406-2.837,1.927-4.218,1.927   c-2.45,0-4.744-1.638-6.472-2.872c-0.434-0.31-0.867-0.62-1.301-0.909c-2.024-1.349-3.281-3.331-4.292-4.924   c-0.483-0.763-1.018-1.604-1.463-2.05c-0.67,0.429-1.839,1.529-2.656,2.298c-2.496,2.35-5.325,5.012-8.362,5.012   c-4.349,0-6.216-3.838-7.22-5.899c-0.185-0.38-0.439-0.901-0.551-1.046c-0.003,0-3.046-3.39-4.259-5.968   c-1.568,0.078-4.839,0.578-7.782,1.141C9.629,30.605,7.5,37.557,7.5,45c0,15.129,8.775,28.242,21.5,34.532V79c0-1.104,0.896-2,2-2   h1.062c0.007,0,0.014,0,0.021,0c0.04-0.042,0.083-0.089,0.132-0.14c0.134-0.141,0.292-0.304,0.483-0.495   c0.051-0.052,0.101-0.1,0.15-0.146c-0.507-0.978-0.237-2.111-0.016-3.045c0.065-0.272,0.163-0.685,0.168-0.83v-2.097   c0-0.64,0.306-1.24,0.823-1.616c0.516-0.378,1.183-0.482,1.791-0.287l3.262,1.052c0.083,0.026,0.166,0.06,0.245,0.097   c0.908,0.431,2.059,0.84,2.415,0.858c-0.03-0.013,0.074-0.118,0.096-0.181c-0.008-0.777,0.281-1.476,0.567-2.072   c-0.069-0.557-0.125-1.118-0.157-1.686c-0.168-0.198-0.35-0.403-0.541-0.612c-1.783-0.428-3.784-0.8-4.267-0.8   c-0.005,0-0.01,0-0.014,0C35.781,65,32,64.873,32,61.831V57c0-1.104,0.896-2,2-2h3.321c0.011,0,0.021,0,0.031,0   c0.057-0.058,0.118-0.125,0.191-0.2c0.133-0.139,0.286-0.297,0.468-0.479c1.48-1.48,3.898-1.794,4.368-1.841   c0.696-0.081,1.382,0.229,1.802,0.789l0.446,0.595C48.73,45.654,57.215,40,67,40c6.779,0,12.932,2.716,17.44,7.112   c0.038-0.699,0.06-1.403,0.06-2.112C84.5,29.357,75.116,15.872,61.686,9.854z M29.914,58.998c-0.39,0.799-1,1.442-1.698,2.14   c-0.222,0.223-0.63,0.956-0.927,1.491c-0.902,1.622-1.834,3.3-3.643,3.3c-1.793,0-3.249-1.373-3.522-1.648   c-0.604-0.608-0.754-1.533-0.373-2.3c0.211-0.433,0.735-1.74,0.829-2.966c-1.234-0.343-1.756-1.039-1.964-1.678   c-0.557-0.309-1.769-0.758-2.841-1.039c-1.021-0.269-1.658-1.283-1.455-2.319l1.052-5.363C15.556,47.677,16.378,47,17.334,47h4.208   c0.235,0,0.468,0.041,0.688,0.122l3.156,1.156c0.535,0.196,0.961,0.611,1.171,1.142c0.914,2.306,2.226,5.145,2.721,5.694   C30.34,56.175,30.582,57.631,29.914,58.998z"></path></g><g><path fill="none" d="M21.187,51H18.98l-0.387,1.975c2.272,0.798,3.22,1.638,3.615,2.335c1.958,0.635,2.387,2.141,2.387,3.34   c0,0.24-0.01,0.479-0.029,0.715c0.253-0.393,0.523-0.756,0.822-1.054c0.171-0.172,0.499-0.499,0.721-0.765   c-0.998-1.305-2.209-4.059-2.932-5.817L21.187,51z"></path></g><g><path fill="none" d="M37.526,73.163l-0.573-0.185c-0.029,0.207-0.069,0.414-0.114,0.62c0.806,0.138,1.429,0.48,1.783,1.335   c0.583,1.409-0.477,2.47-1.047,3.039c-0.757,0.757-1.345,1.019-1.97,1.144c-0.024,0.022-0.05,0.049-0.079,0.077   c-0.168,0.168-0.305,0.312-0.423,0.435c-0.688,0.718-1.196,1.143-2.103,1.301v0.307c4.063,1.462,8.439,2.264,13,2.264   c1.341,0,2.661-0.089,3.967-0.224c-2.812-2.623-5.022-5.882-6.392-9.55c-0.617,0.384-1.319,0.624-2.051,0.624   C40.233,74.351,38.381,73.563,37.526,73.163z"></path></g><g><path fill="none" d="M40.839,57.148c-0.161,0.161-0.296,0.302-0.414,0.424C39.572,58.461,38.937,59,37.321,59H36v1.843   c0.312,0.026,0.726,0.04,1.239,0.04c0.978,0,3.411,0.542,4.973,0.915c0.155-1.206,0.396-2.385,0.717-3.531l-1.183-1.577   C41.368,56.812,41.018,56.971,40.839,57.148z"></path></g><g><path d="M26.558,49.42c-0.21-0.53-0.636-0.945-1.171-1.142l-3.156-1.156C22.01,47.041,21.777,47,21.542,47h-4.208   c-0.956,0-1.778,0.677-1.962,1.615l-1.052,5.363c-0.204,1.036,0.434,2.051,1.455,2.319c1.073,0.281,2.285,0.73,2.841,1.039   c0.208,0.639,0.73,1.335,1.964,1.678c-0.094,1.226-0.617,2.533-0.829,2.966c-0.381,0.767-0.231,1.691,0.373,2.3   c0.273,0.275,1.729,1.648,3.522,1.648c1.808,0,2.741-1.678,3.643-3.3c0.297-0.535,0.705-1.269,0.927-1.491   c0.698-0.697,1.308-1.341,1.698-2.14c0.667-1.367,0.426-2.823-0.636-3.884C28.783,54.564,27.472,51.726,26.558,49.42z    M25.387,58.311c-0.298,0.298-0.568,0.661-0.822,1.054c0.019-0.236,0.029-0.475,0.029-0.715c0-1.199-0.429-2.705-2.387-3.34   c-0.395-0.697-1.342-1.537-3.615-2.335L18.98,51h2.207l1.989,0.729c0.722,1.759,1.934,4.513,2.932,5.817   C25.885,57.812,25.558,58.139,25.387,58.311z"></path><path d="M96.329,90.172l-9.707-9.707C89.985,76.206,92,70.836,92,65c0-4.982-1.471-9.624-3.992-13.527   C88.332,49.362,88.5,47.2,88.5,45c0-18.05-11.316-33.497-27.221-39.648c-0.034-0.077-0.063-0.138-0.078-0.168L61.047,5.26   C56.366,3.482,51.297,2.5,46,2.5C22.565,2.5,3.5,21.565,3.5,45S22.565,87.5,46,87.5c2.914,0,5.76-0.296,8.511-0.857   C58.188,88.773,62.452,90,67,90c5.066,0,9.782-1.519,13.724-4.119l9.947,9.947C91.453,96.609,92.476,97,93.5,97   s2.047-0.391,2.829-1.172C97.891,94.267,97.891,91.733,96.329,90.172z M46,6.5c4.141,0,8.128,0.665,11.868,1.88   c-0.013,0.325-0.076,0.672-0.245,1.011c-1.333,2.667,0.33,4.153,1.128,4.868c0.4,0.357,0.745,0.666,0.976,1.128   c0.208,0.414,0.758,1.516-1.729,4.004c-2.715,2.715-4.208,7.034-2.149,9.091c0.673,0.844,2.384,5.317,2.69,7.122   c-1.047,0.713-2.138,0.257-5.027-1.807c-0.469-0.335-0.938-0.669-1.407-0.981c-1.319-0.879-2.241-2.333-3.133-3.739   c-0.981-1.546-1.907-3.006-3.393-3.749c-2.23-1.113-4.369,0.896-6.846,3.228c-1.759,1.656-4.169,3.925-5.62,3.925   c-1.711,0-2.617-1.582-3.623-3.649c-0.425-0.873-0.76-1.562-1.275-2.076c-0.954-0.954-3.289-4.19-3.633-5.12   c-0.059-0.563-0.338-1.083-0.787-1.451c-0.554-0.454-1.28-1.043-7.071-0.146C23.792,11.762,34.29,6.5,46,6.5z M32.697,76.365   c-0.191,0.191-0.349,0.354-0.483,0.495c-0.049,0.051-0.092,0.098-0.132,0.14c-0.007,0-0.014,0-0.021,0H31c-1.104,0-2,0.896-2,2   v0.532C16.275,73.242,7.5,60.129,7.5,45c0-7.443,2.129-14.395,5.802-20.292c2.944-0.563,6.214-1.062,7.782-1.141   c1.213,2.578,4.256,5.968,4.259,5.968c0.112,0.145,0.366,0.666,0.551,1.046c1.003,2.062,2.871,5.899,7.22,5.899   c3.037,0,5.866-2.662,8.362-5.012c0.817-0.769,1.986-1.869,2.656-2.298c0.446,0.445,0.98,1.287,1.463,2.05   c1.011,1.593,2.268,3.575,4.292,4.924c0.434,0.289,0.867,0.6,1.301,0.909c1.729,1.234,4.022,2.872,6.472,2.872   c1.381,0,2.812-0.521,4.218-1.927c0.919-0.919,1.123-2.258-0.431-6.694c-0.442-1.261-1.541-4.208-2.555-5.416   c-0.019-0.575,0.538-2.272,1.935-3.669c3.003-3.004,3.837-5.904,2.479-8.621c-0.573-1.146-1.364-1.853-1.887-2.32   c-0.057-0.051-0.122-0.109-0.184-0.166c0.207-0.426,0.35-0.847,0.452-1.258C75.116,15.872,84.5,29.357,84.5,45   c0,0.709-0.022,1.412-0.06,2.112C79.932,42.716,73.779,40,67,40c-9.785,0-18.27,5.654-22.373,13.863l-0.446-0.595   c-0.42-0.561-1.106-0.87-1.802-0.789c-0.47,0.047-2.888,0.36-4.368,1.841c-0.183,0.183-0.335,0.341-0.468,0.479   c-0.073,0.075-0.134,0.143-0.191,0.2c-0.01,0-0.02,0-0.031,0H34c-1.104,0-2,0.896-2,2v4.831C32,64.873,35.781,65,37.22,65   c0.004,0,0.009,0,0.014,0c0.483,0,2.484,0.372,4.267,0.8c0.191,0.209,0.373,0.415,0.541,0.612c0.032,0.568,0.087,1.129,0.157,1.686   c-0.286,0.596-0.575,1.295-0.567,2.072c-0.022,0.063-0.126,0.168-0.096,0.181c-0.356-0.019-1.507-0.428-2.415-0.858   c-0.079-0.037-0.162-0.07-0.245-0.097l-3.262-1.052c-0.608-0.195-1.275-0.091-1.791,0.287C33.306,69.007,33,69.607,33,70.247v2.097   c-0.005,0.146-0.103,0.558-0.168,0.83c-0.222,0.934-0.491,2.067,0.016,3.045C32.798,76.266,32.748,76.313,32.697,76.365z    M42.929,58.267c-0.321,1.146-0.562,2.325-0.717,3.531c-1.562-0.373-3.995-0.915-4.973-0.915c-0.513,0-0.927-0.014-1.239-0.04V59   h1.321c1.615,0,2.25-0.539,3.104-1.428c0.118-0.122,0.252-0.263,0.414-0.424c0.178-0.178,0.529-0.337,0.907-0.459L42.929,58.267z    M46,83.5c-4.561,0-8.937-0.802-13-2.264v-0.307c0.906-0.158,1.415-0.583,2.103-1.301c0.118-0.123,0.255-0.267,0.423-0.435   c0.029-0.028,0.055-0.055,0.079-0.077c0.625-0.125,1.213-0.387,1.97-1.144c0.57-0.569,1.63-1.63,1.047-3.039   c-0.354-0.854-0.977-1.197-1.783-1.335c0.045-0.206,0.085-0.413,0.114-0.62l0.573,0.185c0.855,0.399,2.707,1.188,3.998,1.188   c0.732,0,1.434-0.24,2.051-0.624c1.371,3.667,3.58,6.927,6.392,9.55C48.661,83.411,47.341,83.5,46,83.5z M67,84   c-1.167,0-2.305-0.122-3.415-0.324c-2.052-0.375-3.992-1.07-5.759-2.049C51.974,78.385,48,72.15,48,65   c0-1.254,0.129-2.477,0.362-3.664c0.262-1.335,0.662-2.62,1.189-3.84C52.467,50.742,59.188,46,67,46   c6.826,0,12.805,3.63,16.155,9.05c1.063,1.719,1.859,3.613,2.332,5.636C85.811,62.075,86,63.514,86,65C86,75.477,77.477,84,67,84z"></path></g></svg>