<?xml version="1.0" standalone="no"?><!DOCTYPE svg PUBLIC "-//W3C//DTD SVG 1.1//EN" "http://www.w3.org/Graphics/SVG/1.1/DTD/svg11.dtd"><svg width="100%" height="100%" viewBox="0 0 100 100" version="1.1" xmlns="http://www.w3.org/2000/svg" xmlns:xlink="http://www.w3.org/1999/xlink" xml:space="preserve" style="fill-rule:evenodd;clip-rule:evenodd;stroke-linejoin:round;stroke-miterlimit:1.41421;"><path d="M50,0.003c-27.57,0 -50,22.428 -50,49.997c0,27.569 22.43,49.997 50,49.997c27.572,0 50,-22.428 50,-49.997c0,-27.569 -22.428,-49.997 -50,-49.997ZM50,94.229c-24.389,0 -44.231,-19.84 -44.231,-44.229c0,-24.387 19.842,-44.228 44.231,-44.228c24.389,0 44.231,19.841 44.231,44.228c0,24.389 -19.842,44.229 -44.231,44.229Z" style="fill:#fff;fill-rule:nonzero;"/><path d="M59.447,36.474l-9.447,9.447l-9.447,-9.448c-1.126,-1.126 -2.952,-1.127 -4.079,0c-1.126,1.126 -1.126,2.953 0,4.079l9.447,9.448l-9.448,9.447c-1.126,1.127 -1.126,2.953 0,4.079c1.128,1.128 2.953,1.127 4.08,0.001l9.447,-9.448l9.447,9.447c1.126,1.126 2.953,1.127 4.079,0.001c1.128,-1.128 1.126,-2.954 0,-4.08l-9.447,-9.447l9.447,-9.447c1.126,-1.125 1.128,-2.952 0,-4.079c-1.126,-1.127 -2.953,-1.126 -4.079,0Z" style="fill:#fff;fill-rule:nonzero;"/></svg>